<?xml version="1.0" encoding="UTF-8"?>
<svg width="95" height="95" viewBox="0 0 95 95" xmlns="http://www.w3.org/2000/svg" xmlns:xlink="http://www.w3.org/1999/xlink"><g class="drawing-elements"><g class="drawing-elements"><defs>
  <clipPath id="BBoxClipElem" clipPathUnits="userSpaceOnUse">
   <rect id="svg_1" height="96" width="96" y="0" x="0"/>
  </clipPath>
 </defs><g>
  <title>Layer 1</title>
  <path stroke="#cb382b" stroke-miterlimit="4" stroke-linecap="round" fill="#cb382b" stroke-width="1" d="m15.36665,40.69575c0.36241,-0.13525 0.72544,-0.27083 1.08785,-0.4061c0.41217,-0.0504 0.82433,-0.10081 1.2365,-0.15121c0.45301,0.01052 0.90538,0.02105 1.35774,0.0319c0.43769,0.06316 0.87475,0.12665 1.3118,0.18982c0.3707,0.14706 0.7414,0.29444 1.1121,0.44152c0.29732,0.22841 0.59465,0.45682 0.89197,0.68492c0.22268,0.29319 0.44534,0.58636 0.66802,0.87921c0.14037,0.3506 0.28073,0.70152 0.4211,1.05212c0.05105,0.41792 0.10145,0.83615 0.15186,1.25438c-0.05615,0.53787 -0.11229,1.07574 -0.16844,1.61328c-0.1678,0.70886 -0.33561,1.41771 -0.50341,2.12626c-0.32732,0.55477 -0.65399,1.10921 -0.98129,1.66398c-0.416,0.35826 -0.83264,0.71652 -1.24864,1.07478c-0.41025,0.25521 -0.82052,0.51074 -1.23077,0.76595c-0.40323,0.14325 -0.80583,0.28617 -1.20908,0.4294c-0.36368,0.02744 -0.728,0.05455 -1.09168,0.08199c-0.28519,-0.05551 -0.57103,-0.11102 -0.85623,-0.16653c-0.275,-0.12091 -0.54998,-0.24149 -0.82498,-0.36208c-0.29031,-0.16654 -0.58125,-0.33307 -0.87157,-0.49959c-0.282,-0.19907 -0.56465,-0.39846 -0.84667,-0.59751c-0.25075,-0.2281 -0.50214,-0.45652 -0.75288,-0.68494c-0.20672,-0.25745 -0.41279,-0.51489 -0.61953,-0.77234c-0.1595,-0.27881 -0.31965,-0.55733 -0.47916,-0.83583c-0.1091,-0.29636 -0.21885,-0.5924 -0.32795,-0.88878c-0.05807,-0.31423 -0.11612,-0.62847 -0.17419,-0.94269c0.00702,-0.32413 0.01404,-0.64793 0.02106,-0.97206c0.06891,-0.3273 0.13844,-0.65493 0.20799,-0.98257c0.12825,-0.3254 0.25585,-0.6508 0.3841,-0.97619c0.19078,-0.31552 0.38154,-0.63103 0.57232,-0.94654c0.27244,-0.27467 0.54425,-0.54935 0.81669,-0.82371c0.31584,-0.23033 0.63166,-0.46065 0.94748,-0.69098c0.33242,-0.19684 0.66485,-0.39335 0.9979,-0.58988m25.01928,-27.7373c0.35283,-0.13144 0.70567,-0.26287 1.05914,-0.394c0.3592,-0.06157 0.71842,-0.12281 1.07764,-0.18438c0.35857,0.01244 0.71715,0.02488 1.07572,0.03732c0.34453,0.07241 0.68971,0.14483 1.03426,0.21724c0.32795,0.13016 0.65589,0.26033 0.98384,0.39049c0.30244,0.18343 0.60423,0.36654 0.90601,0.54967c0.26225,0.2332 0.52447,0.4664 0.7867,0.69927c0.21949,0.26702 0.43898,0.53404 0.65845,0.80106c0.17482,0.27531 0.35028,0.55062 0.52574,0.82625c0.13079,0.26287 0.2616,0.52608 0.39239,0.78893c0.08614,0.28648 0.17227,0.57296 0.25777,0.85944c0.03573,0.41408 0.07145,0.82785 0.10656,1.24194c-0.01979,0.57296 -0.04021,1.14623 -0.06061,1.71951c-0.10145,0.66229 -0.20226,1.32424 -0.30371,1.98653c-0.34964,0.57582 -0.69929,1.15165 -1.04893,1.72747c-0.53723,0.46417 -1.0751,0.92803 -1.61295,1.39188c-0.6776,0.21885 -1.35518,0.43802 -2.03278,0.65687c-0.62018,0.03667 -1.23971,0.07337 -1.85988,0.11006c-0.4817,-0.01915 -0.96279,-0.03796 -1.44386,-0.05711c-0.41408,-0.10368 -0.82754,-0.20736 -1.24162,-0.31105c-0.36241,-0.19938 -0.7248,-0.39846 -1.08721,-0.59784c-0.30307,-0.29317 -0.60678,-0.58603 -0.90984,-0.87921c-0.22522,-0.38791 -0.45044,-0.77585 -0.67568,-1.16409c-0.14227,-0.47597 -0.28519,-0.95194 -0.42811,-1.42792c-0.08678,-0.50181 -0.17355,-1.00363 -0.26033,-1.50544c-0.01211,-0.46705 -0.02423,-0.93408 -0.03636,-1.40113c0.0906,-0.4259 0.1812,-0.85177 0.27181,-1.27798c0.16396,-0.4026 0.3273,-0.8052 0.49128,-1.20781c0.20418,-0.38952 0.40771,-0.77903 0.61186,-1.16855c0.26033,-0.34805 0.52128,-0.69642 0.7816,-1.04478c0.31965,-0.26448 0.63868,-0.52893 0.95833,-0.79341c0.34134,-0.1962 0.68206,-0.39271 1.02278,-0.58922m-8.42781,21.64757c-3.29291,-0.89707 -6.5858,-1.79415 -9.87871,-2.69122c-1.18674,-0.14771 -2.37348,-0.29573 -3.56022,-0.44344c-1.18739,0.23066 -2.37413,0.46161 -3.56151,0.69227c-1.52937,0.77201 -3.0581,1.54404 -4.58748,2.31574c-1.39156,1.26682 -2.78311,2.53332 -4.17467,3.80013c-0.77457,1.71505 -1.5485,3.43041 -2.32245,5.14544c-0.08804,1.87966 -0.17674,3.75931 -0.26477,5.63928c0.66546,1.76002 1.33093,3.52003 1.99641,5.28038c1.2665,1.39154 2.533,2.78311 3.80013,4.17467c1.71505,0.77393 3.43008,1.54819 5.14513,2.32212c1.88028,0.08837 3.75994,0.17674 5.6396,0.2651c1.7597,-0.66579 3.52003,-1.33126 5.28038,-1.99672c1.39921,-1.13921 2.79778,-2.27843 4.19699,-3.41764c0.79691,-1.33255 1.59382,-2.6654 2.39009,-3.99793c0.39623,-1.5214 0.79308,-3.04279 1.1893,-4.56387c1.0368,0.32763 2.07361,0.65526 3.11043,0.98321c3.41666,11.98869 6.83272,23.97769 10.24939,35.96669c0.83582,1.21131 1.67165,2.42295 2.50748,3.63457c1.08529,0.88782 2.17122,1.77533 3.25653,2.66315c1.23587,0.5417 2.47175,1.08308 3.70698,1.62476c0.15504,0.015 0.30946,0.02967 0.46449,0.04467c-4.30098,-15.47747 -8.60198,-30.95492 -12.90234,-46.43239c16.24119,4.56483 32.48238,9.12997 48.72357,13.69479c-0.02234,-0.14898 -0.04467,-0.29796 -0.06701,-0.44694c-0.60613,-1.20493 -1.21227,-2.41018 -1.8184,-3.61542c-0.94364,-1.03713 -1.88795,-2.07425 -2.83159,-3.11138c-1.25438,-0.77043 -2.50813,-1.54086 -3.7625,-2.3116c-12.73581,-3.87989 -25.47101,-7.75979 -38.20682,-11.63937c-0.33242,-0.92068 -0.66547,-1.84105 -0.9979,-2.76142c1.45474,-0.54487 2.90881,-1.08975 4.36353,-1.63464c1.28884,-0.86582 2.57766,-1.73163 3.8665,-2.59743c1.06424,-1.45728 2.12784,-2.91423 3.19208,-4.37151c0.57169,-1.79287 1.14336,-3.58575 1.71505,-5.37831c-0.18694,-1.87232 -0.37453,-3.74496 -0.56148,-5.61726c-0.86326,-1.67198 -1.72651,-3.34396 -2.59041,-5.01623c-1.45601,-1.19153 -2.91264,-2.38307 -4.36928,-3.5746c-1.79223,-0.57169 -3.58512,-1.14367 -5.378,-1.71536c-1.87264,0.18726 -3.74463,0.37453 -5.61726,0.56179c-1.67229,0.86326 -3.34394,1.72653 -5.01623,2.58979c-1.19122,1.45664 -2.38307,2.91296 -3.57427,4.36926c-0.69035,1.56798 -1.38071,3.13564 -2.07106,4.7036c-0.16781,1.1976 -0.33561,2.39517 -0.50343,3.59277c0.20928,1.17813 0.41856,2.35627 0.62847,3.5344c1.06489,3.24536 2.1304,6.49073 3.19529,9.73609" id="id000" class="selected" data-stroke-color="#cb382b" data-fill-color="#cb382b" data-stroke-width="1"/>
 </g></g></g></svg>