<?xml version="1.0"?>
<svg width="23.999999999999996" height="23.999999999999996" xmlns="http://www.w3.org/2000/svg" xmlns:svg="http://www.w3.org/2000/svg">
 <g class="layer">
  <title>Layer 1</title>
  <path clip-rule="evenodd" d="m13.18,4.48l3.62,3.65a0.75,0.75 0 0 1 -1.16,1.09l-3.52,-3.59l-1.54,1.51l2.91,2.89a0.75,0.75 0 1 1 -1.06,1.06l-2.92,-2.88l-1.44,1.37l3.62,3.59a0.75,0.75 0 1 1 -1.06,1.06l-3.62,-3.59l-1.51,1.54l2.85,2.84a0.75,0.75 0 1 1 -1.06,1.06c-0.29,-0.3 -2.53,-2.51 -2.82,-2.81c-0.46,0.47 -1.18,1.23 -1.41,1.54c-0.29,0.38 -0.36,0.6 -0.36,0.8c0,0.19 0.07,0.41 0.36,0.79c0.3,0.4 0.77,0.87 1.47,1.57l1.44,1.44c0.7,0.7 1.17,1.17 1.57,1.47c0.38,0.29 0.6,0.36 0.79,0.36c0.2,0 0.42,-0.07 0.8,-0.36c0.4,-0.3 0.87,-0.77 1.57,-1.47l8.67,-8.67c0.7,-0.7 1.17,-1.17 1.47,-1.57c0.29,-0.38 0.36,-0.6 0.36,-0.8c0,-0.19 -0.07,-0.41 -0.36,-0.79c-0.3,-0.4 -0.77,-0.87 -1.47,-1.57l-1.44,-1.44c-0.7,-0.7 -1.17,-1.17 -1.57,-1.47c-0.38,-0.29 -0.6,-0.36 -0.79,-0.36c-0.2,0 -0.42,0.07 -0.8,0.36l-1.61,1.37zm0.7,-2.56c0.51,-0.4 1.05,-0.67 1.71,-0.67c0.65,0 1.19,0.27 1.7,0.67c0.49,0.37 1.03,0.91 1.68,1.56l1.52,1.52c0.65,0.65 1.19,1.19 1.56,1.68c0.4,0.51 0.67,1.05 0.67,1.7c0,0.66 -0.27,1.2 -0.67,1.71c-0.37,0.49 -0.91,1.03 -1.56,1.68l-8.75,8.75c-0.65,0.65 -1.19,1.19 -1.68,1.56c-0.51,0.4 -1.05,0.67 -1.71,0.67c-0.65,0 -1.19,-0.27 -1.7,-0.67c-0.49,-0.37 -1.03,-0.91 -1.68,-1.56l-1.52,-1.52c-0.65,-0.65 -1.19,-1.19 -1.57,-1.68c-0.39,-0.51 -0.66,-1.05 -0.66,-1.7c0,-0.66 0.27,-1.2 0.66,-1.71c0.38,-0.49 0.92,-1.03 1.57,-1.68l8.75,-8.75c0.65,-0.65 1.19,-1.19 1.68,-1.57l0,0.01z" fill="#ffffff" fill-rule="evenodd" id="svg_1"/>
 </g>
</svg>